<?xml version="1.0" encoding="utf-8"?>
<!-- Generator: Adobe Illustrator 16.0.0, SVG Export Plug-In . SVG Version: 6.00 Build 0)  -->
<!DOCTYPE svg PUBLIC "-//W3C//DTD SVG 1.1//EN" "http://www.w3.org/Graphics/SVG/1.1/DTD/svg11.dtd">
<svg version="1.1" xmlns="http://www.w3.org/2000/svg" xmlns:xlink="http://www.w3.org/1999/xlink" x="0px" y="0px"
	 width="108.435px" height="138.219px" viewBox="0 0 108.435 138.219" enable-background="new 0 0 108.435 138.219"
	 xml:space="preserve">
<g id="Layer_1" display="none">
	
		<path display="inline" fill="none" stroke="#7C7C7C" stroke-width="10" stroke-linecap="round" stroke-linejoin="round" stroke-miterlimit="10" d="
		M36.528,94.854c0,23.646,19.17,42.816,42.816,42.816c23.647,0,42.816-19.17,42.816-42.816c0-23.647-19.169-42.816-42.816-42.816"/>
	
		<path display="inline" fill="none" stroke="#7C7C7C" stroke-width="10" stroke-linecap="round" stroke-linejoin="round" stroke-miterlimit="10" d="
		M57.828,94.854c0,11.883,9.634,21.517,21.517,21.517c11.884,0,21.518-9.634,21.518-21.517c0-11.884-9.634-21.518-21.518-21.518"/>
	<circle display="inline" fill="#7C7C7C" cx="79.344" cy="94.854" r="7.211"/>
	
		<path display="inline" fill="none" stroke="#7C7C7C" stroke-width="10" stroke-linecap="round" stroke-linejoin="round" stroke-miterlimit="10" d="
		M65.395,24.444l-0.049,55.784L9.562,80.18L23.166,66.6c-0.338-0.243-0.666-0.51-0.97-0.814L-10.84,32.691
		c-3.026-3.031-3.021-7.94,0.01-10.966L6.977,3.949c3.031-3.026,7.94-3.021,10.966,0.009l33.036,33.095
		c0.304,0.304,0.569,0.632,0.813,0.972L65.395,24.444z"/>
</g>
<g id="Layer_2">
	<g>
		<path fill-rule="evenodd" clip-rule="evenodd" fill="#7C7C7C" d="M73.047,48.645c-0.108-10.461-7.309-18.293-18.039-19.511
			c-8.92-1.013-17.945,5.979-20.016,15.563c-0.477,2.209-0.637,4.486-1.139,6.688c-2.015,8.835-8.071,13.591-16.479,15.521
			c-3.86,0.886-7.9,1.102-11.876,1.338c-2.804,0.167-4.7,1.447-4.88,3.922c-0.172,2.377,1.352,4.334,4.092,4.442
			c11.285,0.447,21.869-1.633,30.291-9.868c5.205-5.09,7.256-11.685,8.021-18.775c0.618-5.753,5.227-10.244,10.51-10.39
			c5.095-0.141,9.98,3.683,10.681,8.948c0.369,2.779,0.118,5.771-0.48,8.53c-4.926,22.692-18.819,36.54-41.505,41.499
			c-2.942,0.644-5.952,0.986-8.938,1.405c-2.577,0.362-4.228,2.178-4.046,4.572c0.184,2.418,2.017,4.107,4.652,3.886
			c33.925-2.859,54.548-24.097,58.669-53.044C72.788,51.805,72.889,50.22,73.047,48.645z"/>
		<path fill-rule="evenodd" clip-rule="evenodd" fill="#7C7C7C" d="M83.547,59.299c0.291,4.87,0.084,9.835,0.984,14.59
			c1.523,8.038,7.786,13.472,15.88,14.729c2.407,0.374,4.429-0.945,4.958-3.237c0.53-2.302-0.659-4.692-3.05-5.014
			c-8.153-1.096-10.79-8.104-10.101-16.025c1.525-17.514-3.768-32.547-17.896-43.465C58.854,8.921,37.7,12.769,26.303,29.408
			c-3.072,4.486-5.237,9.664-7.354,14.719c-2.514,6.002-6.816,8.583-13.221,7.218c-3.464-0.738-5.992,1.202-5.707,4.404
			c0.176,1.961,1.328,3.103,3.146,3.727c8.997,3.088,19.58-1.957,23.173-10.863c1.801-4.463,3.602-9.008,6.103-13.086
			c4.146-6.761,10.134-11.349,18.207-12.637c9.567-1.527,17.132,2.218,23.325,9.205C80.889,39.895,84.055,48.644,83.547,59.299z"/>
		<path fill-rule="evenodd" clip-rule="evenodd" fill="#7C7C7C" d="M108.435,58.82c-0.319-18.024-4.128-27.754-15.578-40.873
			C82.926,6.57,70.378,0.175,55.161,0C37.569-0.202,23.77,7.556,13.139,21.283c-4.242,5.478-7.393,11.567-9.596,18.142
			c-1.08,3.229-0.293,5.489,2.223,6.411c2.473,0.905,4.669-0.417,5.775-3.54c3.323-9.369,8.398-17.584,16.112-23.969
			C46.022,3.122,71.709,5.674,87.057,24.282c9.72,14.872,13.764,22.612,12.561,39.393c-0.141,1.966,0.063,3.854,1.899,4.687
			c1.212,0.551,3.005,0.661,4.196,0.158c1.004-0.423,1.932-1.934,2.157-3.104C108.338,62.986,108.317,60.463,108.435,58.82z"/>
		<path fill-rule="evenodd" clip-rule="evenodd" fill="#7C7C7C" d="M23.36,119.564c10.867-0.905,21.304-4.504,30.764-10.876
			c2.504-1.687,4.946-3.466,7.386-5.244c1.55-1.129,3.059-1.128,4.585-0.021c1.16,0.841,2.38,1.622,3.438,2.581
			c5.222,4.736,11.475,7.458,18.146,9.338c3.502,0.985,6.182-0.749,6.162-3.863c-0.013-2.045-0.993-3.515-2.98-4.041
			c-6.759-1.793-12.588-5.116-17.985-9.606c-6.348-5.28-11.11-5.231-17.821-0.244c-7.094,5.271-14.496,9.836-23.187,11.888
			c-3.071,0.725-6.214,1.215-9.35,1.573c-2.94,0.336-4.757,1.911-4.649,4.464C17.976,118.065,19.861,119.598,23.36,119.564z"/>
		<path fill-rule="evenodd" clip-rule="evenodd" fill="#7C7C7C" d="M34.936,130.087c8.973-0.741,17.99-3.554,25.898-9.531
			c3.332-2.519,3.24-2.232,6.599-0.046c3.326,2.166,6.898,4.01,10.52,5.652c2.804,1.272,5.265,0.129,6.152-2.326
			c0.87-2.408-0.505-4.354-3.35-5.729c-3.236-1.562-6.482-3.253-9.354-5.387c-4.944-3.674-8.614-4.18-13.595-0.431
			c-6.36,4.786-13.266,8.037-21.182,9.052c-1.047,0.135-2.104,0.206-3.152,0.336c-3.227,0.399-4.92,2.079-4.714,4.655
			C28.967,128.944,30.849,130.267,34.936,130.087z"/>
		<path fill-rule="evenodd" clip-rule="evenodd" fill="#7C7C7C" d="M55.618,138.219c4.372-1.093,8.787-2.04,13.099-3.332
			c2.644-0.791,3.641-3.223,2.773-5.616c-0.807-2.227-3.193-3.033-5.846-2.33c-3.409,0.903-6.859,1.777-10.349,2.227
			c-3.364,0.432-5.274,1.741-5.203,4.383C50.162,136.174,52.252,137.788,55.618,138.219z"/>
		
			<path fill-rule="evenodd" clip-rule="evenodd" fill="none" stroke="#7C7C7C" stroke-width="10" stroke-linecap="round" stroke-linejoin="round" stroke-miterlimit="10" d="
			M6.616,85.677c0,0,34.482,6.451,46.131-31.839"/>
		
			<path fill-rule="evenodd" clip-rule="evenodd" fill="none" stroke="#7C7C7C" stroke-width="10" stroke-linecap="round" stroke-linejoin="round" stroke-miterlimit="10" d="
			M75.901,67.735c0,0-9.076,23.156,20.876,32.349"/>
	</g>
</g>
</svg>
