<?xml version="1.0" encoding="utf-8"?>
<!-- Generator: Adobe Illustrator 16.0.0, SVG Export Plug-In . SVG Version: 6.00 Build 0)  -->
<!DOCTYPE svg PUBLIC "-//W3C//DTD SVG 1.1//EN" "http://www.w3.org/Graphics/SVG/1.1/DTD/svg11.dtd">
<svg version="1.1" xmlns="http://www.w3.org/2000/svg" xmlns:xlink="http://www.w3.org/1999/xlink" x="0px" y="0px"
	 width="200.376px" height="189.246px" viewBox="0 0 200.376 189.246" enable-background="new 0 0 200.376 189.246"
	 xml:space="preserve">
<g id="Layer_1" display="none">
	
		<path display="inline" fill="none" stroke="#7C7C7C" stroke-width="10" stroke-linecap="round" stroke-linejoin="round" stroke-miterlimit="10" d="
		M26.598,110.037c0,23.646,19.17,42.816,42.816,42.816c23.647,0,42.816-19.17,42.816-42.816c0-23.647-19.169-42.816-42.816-42.816"
		/>
	
		<path display="inline" fill="none" stroke="#7C7C7C" stroke-width="10" stroke-linecap="round" stroke-linejoin="round" stroke-miterlimit="10" d="
		M47.898,110.037c0,11.883,9.634,21.517,21.517,21.517c11.884,0,21.518-9.634,21.518-21.517c0-11.884-9.634-21.518-21.518-21.518"/>
	<circle display="inline" fill="#7C7C7C" cx="69.415" cy="110.037" r="7.211"/>
	
		<path display="inline" fill="none" stroke="#7C7C7C" stroke-width="10" stroke-linecap="round" stroke-linejoin="round" stroke-miterlimit="10" d="
		M55.465,39.627l-0.049,55.784l-55.784-0.049l13.604-13.58c-0.338-0.243-0.666-0.51-0.97-0.814L-20.77,47.874
		c-3.026-3.031-3.021-7.94,0.01-10.966l17.808-17.776c3.031-3.026,7.94-3.021,10.966,0.009l33.036,33.095
		c0.304,0.304,0.569,0.632,0.813,0.972L55.465,39.627z"/>
</g>
<g id="Layer_2" display="none">
	<g display="inline">
		<path fill-rule="evenodd" clip-rule="evenodd" fill="#7C7C7C" d="M63.118,63.827c-0.108-10.461-7.309-18.293-18.039-19.511
			c-8.92-1.013-17.945,5.979-20.016,15.563c-0.477,2.209-0.637,4.486-1.139,6.688c-2.015,8.835-8.071,13.591-16.479,15.521
			c-3.86,0.886-7.9,1.102-11.876,1.338c-2.804,0.167-4.7,1.447-4.88,3.922c-0.172,2.377,1.352,4.334,4.092,4.442
			c11.285,0.447,21.869-1.633,30.291-9.868c5.205-5.09,7.256-11.685,8.021-18.775c0.618-5.753,5.227-10.244,10.51-10.39
			c5.095-0.141,9.98,3.683,10.681,8.948c0.369,2.779,0.118,5.771-0.48,8.53c-4.926,22.692-18.819,36.54-41.505,41.499
			c-2.942,0.644-5.952,0.986-8.938,1.405c-2.577,0.362-4.228,2.178-4.046,4.572c0.184,2.418,2.017,4.107,4.652,3.886
			c33.925-2.859,54.548-24.097,58.669-53.044C62.858,66.987,62.959,65.402,63.118,63.827z"/>
		<path fill-rule="evenodd" clip-rule="evenodd" fill="#7C7C7C" d="M73.618,74.481c0.291,4.87,0.084,9.835,0.984,14.59
			c1.523,8.038,7.786,13.472,15.88,14.729c2.407,0.374,4.429-0.945,4.958-3.237c0.53-2.302-0.659-4.692-3.05-5.014
			c-8.153-1.096-10.79-8.104-10.101-16.025c1.525-17.514-3.768-32.547-17.896-43.465c-15.47-11.955-36.624-8.107-48.021,8.532
			c-3.072,4.486-5.237,9.664-7.354,14.719c-2.514,6.002-6.816,8.583-13.221,7.218c-3.464-0.738-5.992,1.202-5.707,4.404
			c0.176,1.961,1.328,3.103,3.146,3.727c8.997,3.088,19.58-1.957,23.173-10.863c1.801-4.463,3.602-9.008,6.103-13.086
			c4.146-6.761,10.134-11.349,18.207-12.637c9.567-1.527,17.132,2.218,23.325,9.205C70.959,55.077,74.125,63.826,73.618,74.481z"/>
		<path fill-rule="evenodd" clip-rule="evenodd" fill="#7C7C7C" d="M98.505,74.003c-0.319-18.024-4.128-27.754-15.578-40.873
			c-9.931-11.377-22.479-17.772-37.696-17.947C27.639,14.98,13.84,22.738,3.209,36.466c-4.242,5.478-7.393,11.567-9.596,18.142
			c-1.08,3.229-0.293,5.489,2.223,6.411c2.473,0.905,4.669-0.417,5.775-3.54c3.323-9.369,8.398-17.584,16.112-23.969
			c18.368-15.205,44.056-12.653,59.403,5.955c9.72,14.872,13.764,22.612,12.561,39.393c-0.141,1.966,0.063,3.854,1.899,4.687
			c1.212,0.551,3.005,0.661,4.196,0.158c1.004-0.423,1.932-1.934,2.157-3.104C98.409,78.169,98.387,75.646,98.505,74.003z"/>
		<path fill-rule="evenodd" clip-rule="evenodd" fill="#7C7C7C" d="M13.43,134.747c10.867-0.905,21.304-4.504,30.764-10.876
			c2.504-1.687,4.946-3.466,7.386-5.244c1.55-1.129,3.059-1.128,4.585-0.021c1.16,0.841,2.38,1.622,3.438,2.581
			c5.222,4.736,11.475,7.458,18.146,9.338c3.502,0.985,6.182-0.749,6.162-3.863c-0.013-2.045-0.993-3.515-2.98-4.041
			c-6.759-1.793-12.588-5.116-17.985-9.606c-6.348-5.28-11.11-5.231-17.821-0.244c-7.094,5.271-14.496,9.836-23.187,11.888
			c-3.071,0.725-6.214,1.215-9.35,1.573c-2.94,0.336-4.757,1.911-4.649,4.464C8.046,133.248,9.931,134.78,13.43,134.747z"/>
		<path fill-rule="evenodd" clip-rule="evenodd" fill="#7C7C7C" d="M25.006,145.27c8.973-0.741,17.99-3.554,25.898-9.531
			c3.332-2.519,3.24-2.232,6.599-0.046c3.326,2.166,6.898,4.01,10.52,5.652c2.804,1.272,5.265,0.129,6.152-2.326
			c0.87-2.408-0.505-4.354-3.35-5.729c-3.236-1.562-6.482-3.253-9.354-5.387c-4.944-3.674-8.614-4.18-13.595-0.431
			c-6.36,4.786-13.266,8.037-21.182,9.052c-1.047,0.135-2.104,0.206-3.152,0.336c-3.227,0.399-4.92,2.079-4.714,4.655
			C19.038,144.127,20.919,145.449,25.006,145.27z"/>
		<path fill-rule="evenodd" clip-rule="evenodd" fill="#7C7C7C" d="M45.688,153.401c4.372-1.093,8.787-2.04,13.099-3.332
			c2.644-0.791,3.641-3.223,2.773-5.616c-0.807-2.227-3.193-3.033-5.846-2.33c-3.409,0.903-6.859,1.777-10.349,2.227
			c-3.364,0.432-5.274,1.741-5.203,4.383C40.232,151.356,42.323,152.971,45.688,153.401z"/>
		
			<path fill-rule="evenodd" clip-rule="evenodd" fill="none" stroke="#7C7C7C" stroke-width="10" stroke-linecap="round" stroke-linejoin="round" stroke-miterlimit="10" d="
			M-3.314,100.859c0,0,34.482,6.451,46.131-31.839"/>
		
			<path fill-rule="evenodd" clip-rule="evenodd" fill="none" stroke="#7C7C7C" stroke-width="10" stroke-linecap="round" stroke-linejoin="round" stroke-miterlimit="10" d="
			M65.971,82.918c0,0-9.076,23.156,20.876,32.349"/>
	</g>
</g>
<g id="Layer_3">
</g>
<g id="Layer_4">
	<path fill-rule="evenodd" clip-rule="evenodd" fill="#7C7C7C" d="M129.953,189.246c-19.803,0-39.605,0-60.467,0
		c2.936-3.279,5.961-5.643,7.564-8.738c1.611-3.107,1.805-6.947,2.674-10.701c13.594,0,27.15,0,41.188,0
		c0.824,7.314,1.863,14.639,10.432,18.016C130.878,188.297,130.416,188.771,129.953,189.246z"/>
	<g>
		<path fill-rule="evenodd" clip-rule="evenodd" fill="#7C7C7C" d="M200.353,38.059c-0.004-6.201-2.551-8.723-8.838-8.848
			c-1.52-0.029-3.049,0.01-4.576,0.063l10.064-15.941L177.671,0c0,0-19.033,16.051-28.832,29.264
			C104.556,29.229,38.3,29.197,7.941,29.262c-5.482,0.012-7.916,2.92-7.92,8.719c-0.029,38.164-0.027,76.326,0.002,114.488
			c0.004,6.305,2.799,9.146,9.139,9.15c60.66,0.031,121.318,0.031,181.979,0c6.387-0.002,9.209-2.813,9.215-9.072
			C200.384,114.385,200.386,76.221,200.353,38.059z M188.453,137.164c-58.979,0-117.672,0-176.492,0c0-32.104,0-63.848,0-96.191
			c2.264,0,4.215,0,6.166,0c24.945,0,86.455,0.027,125.039-0.033c-0.084,2.193,0.902,3.861,3.361,4.736
			c16.188,5.766,22.479,12,22.479,12l10.439-16.533c3.016,0,6.008,0,9.008,0C188.453,73.496,188.453,105.252,188.453,137.164z"/>
		<path fill-rule="evenodd" clip-rule="evenodd" fill="#7C7C7C" d="M139.664,54.27c-11.178-1.676-19.18,2.371-22.332,13.658
			c-4.846,17.363-13.293,28.83-33.58,26.635c25.258,4.205,49.896,5.656,72.914-6.463c3.654-1.924,6.893-7.912,7.199-12.242
			C164.517,66.621,151.769,56.088,139.664,54.27z"/>
	</g>
</g>
</svg>
