<?xml version="1.0" encoding="utf-8"?>
<!-- Generator: Adobe Illustrator 16.0.0, SVG Export Plug-In . SVG Version: 6.00 Build 0)  -->
<!DOCTYPE svg PUBLIC "-//W3C//DTD SVG 1.1//EN" "http://www.w3.org/Graphics/SVG/1.1/DTD/svg11.dtd">
<svg version="1.1" id="Layer_1" xmlns="http://www.w3.org/2000/svg" xmlns:xlink="http://www.w3.org/1999/xlink" x="0px" y="0px"
	 width="1000px" height="1000px" viewBox="0 0 1000 1000" enable-background="new 0 0 1000 1000" xml:space="preserve">
<path fill="#FFFFFF" d="M195.877,0.25C88.16,0.25,0,88.408,0,196.127v607.841c0,107.717,88.158,195.845,195.877,195.845h607.841
	c107.718,0,195.845-88.127,195.845-195.845V196.127C999.563,88.41,911.436,0.25,803.718,0.25H195.877L195.877,0.25z
	 M245.143,165.198c51.648,0,83.461,33.906,84.443,78.475c0,43.585-32.797,78.444-85.442,78.444h-0.969
	c-50.665,0-83.412-34.857-83.412-78.444C159.763,199.105,193.501,165.198,245.143,165.198L245.143,165.198z M690.223,373.508
	c99.329,0,173.79,64.922,173.79,204.437v260.448H713.06V595.406c0-61.061-21.847-102.719-76.476-102.719
	c-41.704,0-66.563,28.078-77.477,55.202c-3.987,9.704-4.967,23.257-4.967,36.832v253.671H403.188c0,0,1.981-411.612,0-454.232
	h150.984v64.324C574.232,417.534,610.114,373.507,690.223,373.508L690.223,373.508z M168.667,384.193h150.952v454.202H168.667
	V384.193L168.667,384.193z"/>
</svg>
