<?xml version="1.0" encoding="utf-8"?>
<!-- Generator: Adobe Illustrator 16.0.0, SVG Export Plug-In . SVG Version: 6.00 Build 0)  -->
<!DOCTYPE svg PUBLIC "-//W3C//DTD SVG 1.1//EN" "http://www.w3.org/Graphics/SVG/1.1/DTD/svg11.dtd">
<svg version="1.1" id="Layer_1" xmlns="http://www.w3.org/2000/svg" xmlns:xlink="http://www.w3.org/1999/xlink" x="0px" y="0px"
	 width="134.7px" height="155.752px" viewBox="0 0 134.7 155.752" enable-background="new 0 0 134.7 155.752" xml:space="preserve">
<path fill="#FFFFFF" d="M42.047,116.379c0,1.637-0.455,2.909-1.356,3.812c-0.903,0.907-2.171,1.354-3.806,1.354H22.479
	c-0.426,0-0.643-0.215-0.643-0.645V91.624c0-0.434,0.217-0.646,0.643-0.646h13.98c1.635,0,2.904,0.449,3.812,1.355
	c0.902,0.902,1.354,2.172,1.354,3.811v5.162c0,0.549-0.125,1.049-0.363,1.511c-0.249,0.456-0.57,0.859-0.97,1.206
	c-0.404,0.344-0.862,0.616-1.379,0.814c-0.517,0.203-1.047,0.303-1.593,0.303v0.086c1.319,0,2.434,0.389,3.349,1.161
	c0.917,0.781,1.379,1.809,1.379,3.099V116.379z M33.881,97.422c0-0.173-0.063-0.32-0.19-0.449c-0.129-0.129-0.28-0.197-0.456-0.197
	h-3.437v6.043h3.009c0.718,0,1.073-0.36,1.073-1.081V97.422z M34.077,109.57c0-0.347-0.091-0.617-0.274-0.819
	c-0.186-0.202-0.447-0.287-0.794-0.26l-3.21,0.131v7.123h3.643c0.17,0,0.317-0.066,0.448-0.194c0.125-0.131,0.188-0.282,0.188-0.455
	V109.57z"/>
<path fill="#FFFFFF" d="M65.735,116.543c0,1.633-0.446,2.903-1.353,3.807c-0.909,0.905-2.177,1.355-3.809,1.355H50.252
	c-1.637,0-2.906-0.45-3.806-1.355c-0.904-0.903-1.359-2.174-1.359-3.807v-24.92c0-0.434,0.213-0.646,0.651-0.646h6.669
	c0.429,0,0.64,0.213,0.64,0.646v23.236c0,0.174,0.07,0.324,0.201,0.452c0.129,0.125,0.276,0.188,0.449,0.188h3.435
	c0.167,0,0.319-0.063,0.454-0.188c0.123-0.128,0.188-0.278,0.188-0.452V91.624c0-0.434,0.214-0.646,0.646-0.646h6.67
	c0.433,0,0.646,0.213,0.646,0.646V116.543z"/>
<path fill="#FFFFFF" d="M89.409,116.379c0,1.637-0.45,2.909-1.352,3.812c-0.904,0.907-2.177,1.354-3.805,1.354H69.848
	c-0.438,0-0.645-0.215-0.645-0.645V91.624c0-0.434,0.213-0.646,0.645-0.646h13.973c1.639,0,2.907,0.449,3.809,1.355
	c0.907,0.902,1.36,2.172,1.36,3.811v5.162c0,0.549-0.124,1.049-0.365,1.511c-0.244,0.456-0.567,0.859-0.973,1.206
	c-0.399,0.344-0.857,0.616-1.372,0.814c-0.519,0.203-1.05,0.303-1.594,0.303v0.086c1.313,0,2.435,0.389,3.349,1.161
	c0.919,0.781,1.374,1.809,1.374,3.099V116.379z M81.248,97.422c0-0.173-0.065-0.32-0.192-0.449s-0.281-0.197-0.456-0.197h-3.433
	v6.043h3.009c0.714,0,1.072-0.36,1.072-1.081V97.422z M81.448,109.57c0-0.347-0.093-0.617-0.278-0.819
	c-0.185-0.202-0.45-0.287-0.792-0.26l-3.211,0.131v7.123h3.638c0.171,0,0.321-0.066,0.448-0.194
	c0.131-0.131,0.195-0.282,0.195-0.455V109.57z"/>
<path fill="#FFFFFF" d="M112.904,116.543c0,1.634-0.456,2.903-1.355,3.809c-0.908,0.903-2.173,1.354-3.806,1.354H97.415
	c-1.633,0-2.905-0.45-3.812-1.354c-0.899-0.905-1.345-2.175-1.345-3.809V95.977c0-1.634,0.445-2.906,1.345-3.808
	c0.906-0.907,2.179-1.353,3.812-1.353h10.328c1.633,0,2.897,0.445,3.806,1.353c0.899,0.901,1.355,2.174,1.355,3.808V116.543z
	 M104.934,97.461c0-0.171-0.061-0.322-0.191-0.451c-0.127-0.129-0.277-0.19-0.451-0.19h-3.432c-0.172,0-0.322,0.062-0.45,0.19
	c-0.13,0.129-0.192,0.28-0.192,0.451v17.6c0,0.172,0.063,0.321,0.192,0.449c0.128,0.131,0.278,0.195,0.45,0.195h3.432
	c0.174,0,0.324-0.064,0.451-0.195c0.131-0.128,0.191-0.277,0.191-0.449V97.461z"/>
<path fill="#FFFFFF" d="M42.047,150.583c0,1.641-0.455,2.908-1.356,3.813c-0.903,0.905-2.171,1.357-3.806,1.357H22.479
	c-0.426,0-0.643-0.216-0.643-0.647v-29.281c0-0.429,0.217-0.644,0.643-0.644h13.98c1.635,0,2.904,0.45,3.812,1.356
	c0.902,0.904,1.354,2.174,1.354,3.811v5.166c0,0.545-0.125,1.048-0.363,1.505c-0.249,0.461-0.57,0.861-0.97,1.208
	c-0.404,0.345-0.862,0.616-1.379,0.817c-0.517,0.2-1.047,0.301-1.593,0.301v0.087c1.319,0,2.434,0.385,3.349,1.159
	c0.917,0.778,1.379,1.81,1.379,3.103V150.583z M33.881,131.627c0-0.173-0.063-0.32-0.19-0.452c-0.129-0.126-0.28-0.196-0.456-0.196
	h-3.437v6.043h3.009c0.718,0,1.073-0.356,1.073-1.079V131.627z M34.077,143.774c0-0.343-0.091-0.619-0.274-0.818
	c-0.186-0.201-0.447-0.287-0.794-0.257l-3.21,0.127v7.12h3.643c0.17,0,0.317-0.061,0.448-0.191c0.125-0.129,0.188-0.279,0.188-0.454
	V143.774z"/>
<path fill="#FFFFFF" d="M65.735,150.745c0,1.637-0.446,2.904-1.353,3.809c-0.909,0.908-2.177,1.357-3.809,1.357H50.252
	c-1.637,0-2.906-0.449-3.806-1.357c-0.904-0.904-1.359-2.172-1.359-3.809v-24.921c0-0.429,0.213-0.644,0.651-0.644h6.669
	c0.429,0,0.64,0.215,0.64,0.644v23.239c0,0.172,0.07,0.326,0.201,0.454c0.129,0.13,0.276,0.189,0.449,0.189h3.435
	c0.167,0,0.319-0.06,0.454-0.189c0.123-0.128,0.188-0.282,0.188-0.454v-23.239c0-0.429,0.214-0.644,0.646-0.644h6.67
	c0.433,0,0.646,0.215,0.646,0.644V150.745z"/>
<path fill="#FFFFFF" d="M89.409,150.583c0,1.641-0.45,2.908-1.352,3.813c-0.904,0.905-2.177,1.357-3.805,1.357H69.848
	c-0.438,0-0.645-0.216-0.645-0.647v-29.281c0-0.429,0.213-0.644,0.645-0.644h13.973c1.639,0,2.907,0.45,3.809,1.356
	c0.907,0.904,1.36,2.174,1.36,3.811v5.166c0,0.545-0.124,1.048-0.365,1.505c-0.244,0.461-0.567,0.861-0.973,1.208
	c-0.399,0.345-0.857,0.616-1.372,0.817c-0.519,0.2-1.05,0.301-1.594,0.301v0.087c1.313,0,2.435,0.385,3.349,1.159
	c0.919,0.778,1.374,1.81,1.374,3.103V150.583z M81.248,131.627c0-0.173-0.065-0.32-0.192-0.452
	c-0.127-0.126-0.281-0.196-0.456-0.196h-3.433v6.043h3.009c0.714,0,1.072-0.356,1.072-1.079V131.627z M81.448,143.774
	c0-0.343-0.093-0.619-0.278-0.818c-0.185-0.201-0.45-0.287-0.792-0.257l-3.211,0.127v7.12h3.638c0.171,0,0.321-0.061,0.448-0.191
	c0.131-0.129,0.195-0.279,0.195-0.454V143.774z"/>
<path fill="#FFFFFF" d="M112.904,150.749c0,1.637-0.456,2.9-1.355,3.807c-0.908,0.906-2.173,1.355-3.806,1.355H97.415
	c-1.633,0-2.905-0.449-3.812-1.355c-0.899-0.906-1.345-2.17-1.345-3.807v-20.567c0-1.635,0.445-2.905,1.345-3.807
	c0.906-0.902,2.179-1.354,3.812-1.354h10.328c1.633,0,2.897,0.452,3.806,1.354c0.899,0.901,1.355,2.172,1.355,3.807V150.749z
	 M104.934,131.667c0-0.171-0.061-0.325-0.191-0.453c-0.127-0.128-0.277-0.194-0.451-0.194h-3.432c-0.172,0-0.322,0.066-0.45,0.194
	c-0.13,0.128-0.192,0.282-0.192,0.453v17.597c0,0.174,0.063,0.323,0.192,0.453c0.128,0.127,0.278,0.191,0.45,0.191h3.432
	c0.174,0,0.324-0.064,0.451-0.191c0.131-0.13,0.191-0.279,0.191-0.453V131.667z"/>
<path fill="#FFFFFF" d="M110.432,16.556c2.035,0.097,4.137,0.197,6.112,0.156c7.964-0.16,11.526-6.278,13.101-11.106
	c0.811-3.088,0.814-5.321,0.814-5.321s-2.775,2.316-6.531,4.71c0.145-1.556,0.222-3.212,0.229-4.996c0,0-5.878,9.287-13.001,10.229
	c-7.004,0.932-13.211,3.979-16.553,8.955C98.387,15.985,104.494,16.271,110.432,16.556"/>
<path fill="#FFFFFF" d="M134.7,11.59c0,0-3.338,12.304-14.88,14.408c-0.036,0.007-0.073,0.014-0.104,0.02
	c1.472,1.628,2.807,3.693,3.95,6.289c0,0-2.547-0.961-6.122-1.679c0.926,0.839,1.864,1.738,2.815,2.718c0,0-3.399-0.968-7.743-1.275
	c0.922,0.841,1.859,1.748,2.813,2.725c0,0-2.366-0.672-5.676-1.072c2.925,3.362,5.279,7.488,6.709,12.542
	c3.67,12.939,4.414,32.479,4.414,32.479s-0.945-0.384-2.586-0.977c-0.183,3.614-0.397,5.958-0.397,5.958s-1.367-1.058-3.743-2.459
	c-0.129,1.641-0.275,3.063-0.275,3.063s-2.435-2.493-6.188-6.337c-9.056-3.862-22.868-6.832-36.115,1.84
	c-1.432,4.889-4.208,7.805-4.208,7.805c-1.966-2.879-2.093-2.836-4.201-7.775l0.093-4.432c0,0-2.342,3.06-2.388,3.035
	c-12.538-6.962-25.309-4.112-33.848-0.467c-3.751,3.838-6.187,6.332-6.187,6.332s-0.146-1.423-0.278-3.063
	c-2.373,1.401-3.738,2.459-3.738,2.459s-0.212-2.345-0.4-5.958c-1.64,0.593-2.585,0.977-2.585,0.977s0.743-19.54,4.414-32.479
	c1.43-5.053,3.788-9.178,6.706-12.542c-3.305,0.4-5.673,1.072-5.673,1.072c0.953-0.977,1.893-1.884,2.816-2.725
	c-4.347,0.307-7.749,1.275-7.749,1.275c0.954-0.98,1.894-1.879,2.818-2.718c-3.577,0.718-6.123,1.679-6.123,1.679
	c1.139-2.595,2.477-4.66,3.951-6.289c-0.033-0.006-0.065-0.013-0.102-0.02C3.341,23.894,0,11.59,0,11.59s2.071,0.918,5.043,1.937
	C2.226,8.919,1.651,4.66,1.651,4.66S4.71,6.576,8.75,8.441C8.4,6.922,8.097,5.292,7.853,3.527c0,0,5.385,8.966,14.256,8.383
	c9.257-0.606,16.76,3.782,20.197,10.39c8.176-2.854,16.315-3.525,21.004-3.652c0.04-0.001,0.081-0.001,0.126-0.001
	c0.137-0.004,0.272-0.01,0.402-0.011c0.098-0.001,0.186-0.001,0.278-0.004c0.071,0,0.149-0.002,0.224-0.002
	c0.809-0.013,1.481-0.006,1.983,0.002h2.055c0.501-0.009,1.17-0.015,1.989-0.002c0.069,0,0.146,0.002,0.225,0.002
	c0.091,0.002,0.179,0.002,0.268,0.004c0.14,0.001,0.276,0.007,0.417,0.011c0.041,0,0.078,0,0.115,0.001
	c4.811,0.13,13.242,0.832,21.633,3.871c0.08-0.135,0.146-0.244,0.15-0.255l0.032-0.047l0.196-0.301
	c3.467-5.116,10.224-3.866,17.379-2.546c2.018,0.377,4.111,0.764,6.125,0.998c7.086,0.816,11.57-3.197,14.277-7.384
	C133.316,12.202,134.7,11.59,134.7,11.59 M52.005,45.77c0.007,0.006,0.017,0.014,0.028,0.017c0.326,0.836,0.51,1.74,0.51,2.692
	c0.001,4.081-3.308,7.396-7.398,7.397c-4.083,0.002-7.391-3.312-7.393-7.39c0-1.825,0.657-3.491,1.752-4.78
	c-0.031,0.155-0.05,0.32-0.05,0.485c0,1.404,1.136,2.544,2.541,2.544c1.405,0,2.544-1.14,2.544-2.544
	c0-0.465-0.144-0.905-0.358-1.282c-3.522-1.01-6.996-1.66-9.485-1.66c0,0-3.03-0.215-3.03,7.233c0,7.444,6.037,13.48,13.479,13.48
	c7.446,0,13.226-6.22,13.226-11.045C58.371,49.354,55.688,47.46,52.005,45.77 M82.698,45.77c-3.683,1.69-6.365,3.584-6.365,5.148
	c0,4.825,5.775,11.045,13.223,11.045c7.443,0,13.481-6.036,13.481-13.48c0-7.449-3.032-7.233-3.032-7.233
	c-2.49,0-5.965,0.65-9.481,1.66c-0.214,0.377-0.358,0.817-0.358,1.282c0,1.404,1.139,2.544,2.539,2.544
	c1.406,0,2.542-1.14,2.542-2.544c0-0.166-0.02-0.331-0.046-0.485c1.089,1.289,1.752,2.955,1.752,4.78
	c-0.002,4.078-3.314,7.392-7.396,7.39c-4.089-0.001-7.398-3.316-7.396-7.397c0-0.952,0.188-1.856,0.512-2.692
	C82.68,45.784,82.69,45.776,82.698,45.77"/>
</svg>
