<svg version="1.1"  xmlns="http://www.w3.org/2000/svg" x="0px" y="0px" viewBox="0 0 428.271 127.008" enable-background="new 0 0 428.271 127.008"
	 xml:space="preserve">
<g>
	<path fill="#FFFFFF" d="M272.563,23.805c2.926,0.139,5.945,0.284,8.787,0.225c11.453-0.229,16.576-9.029,18.84-15.97
		c1.162-4.439,1.17-7.647,1.17-7.647s-3.992,3.328-9.393,6.77c0.209-2.234,0.322-4.617,0.332-7.182c0,0-8.451,13.352-18.693,14.707
		c-10.07,1.34-18.998,5.723-23.801,12.877C255.244,22.982,264.023,23.395,272.563,23.805z"/>
	<path fill="#FFFFFF" d="M310.455,17.664c0,0-1.988,0.879-5.053,2.004c-3.891,6.021-10.34,11.791-20.529,10.619
		c-2.896-0.338-5.902-0.895-8.805-1.435c-10.289-1.899-20.004-3.696-24.988,3.659l-0.281,0.432l-0.047,0.068
		c-0.008,0.018-0.102,0.174-0.217,0.369c-12.066-4.37-24.188-5.38-31.107-5.567c-0.051-0.002-0.104-0.002-0.162-0.003
		c-0.203-0.005-0.402-0.012-0.6-0.016c-0.131-0.002-0.258-0.002-0.385-0.006c-0.113,0-0.225-0.003-0.326-0.003
		c-1.174-0.017-2.139-0.01-2.859,0.003h-2.955c-0.719-0.013-1.687-0.02-2.85-0.003c-0.108,0-0.223,0.003-0.322,0.003
		c-0.133,0.004-0.261,0.004-0.398,0.006c-0.186,0.004-0.384,0.011-0.578,0.016c-0.066,0.001-0.128,0.001-0.184,0.003
		c-6.742,0.183-18.445,1.148-30.202,5.252c-4.942-9.501-15.729-15.812-29.037-14.939C135.81,18.963,128.067,6.07,128.067,6.07
		c0.354,2.537,0.788,4.884,1.292,7.066C123.55,10.453,119.15,7.7,119.15,7.7s0.828,6.124,4.878,12.749
		c-4.274-1.464-7.251-2.785-7.251-2.785s4.804,17.69,21.407,20.717c0.054,0.009,0.1,0.02,0.147,0.027
		c-2.119,2.342-4.042,5.312-5.68,9.041c0,0,3.66-1.379,8.803-2.411c-1.33,1.206-2.683,2.499-4.054,3.907
		c0,0,4.892-1.391,11.14-1.832c-1.324,1.209-2.677,2.512-4.047,3.916c0,0,3.406-0.967,8.156-1.54
		c-4.196,4.835-7.585,10.767-9.643,18.032c-5.276,18.604-6.346,46.701-6.346,46.701s1.359-0.555,3.717-1.406
		c0.271,5.195,0.576,8.568,0.576,8.568s1.961-1.521,5.377-3.535c0.188,2.359,0.398,4.404,0.398,4.404s3.499-3.584,8.896-9.107
		c12.277-5.238,30.641-9.338,48.666,0.674c0.066,0.037,3.434-4.365,3.434-4.365l-0.131,6.373c3.032,7.104,3.213,7.039,6.039,11.18
		c0,0,3.996-4.191,6.051-11.221c19.047-12.469,38.906-8.199,51.928-2.645c5.395,5.527,8.898,9.111,8.898,9.111
		s0.209-2.045,0.393-4.404c3.418,2.014,5.385,3.535,5.385,3.535s0.307-3.369,0.57-8.568c2.357,0.852,3.717,1.406,3.717,1.406
		s-1.068-28.098-6.344-46.701c-2.059-7.266-5.443-13.199-9.648-18.032c4.758,0.573,8.164,1.54,8.164,1.54
		c-1.371-1.404-2.723-2.707-4.045-3.916c6.244,0.441,11.131,1.832,11.131,1.832c-1.367-1.408-2.715-2.701-4.047-3.907
		c5.141,1.032,8.801,2.411,8.801,2.411c-1.643-3.729-3.561-6.699-5.68-9.041c0.049-0.008,0.1-0.019,0.152-0.027
		C305.654,35.354,310.455,17.664,310.455,17.664z M178.689,89.092c-10.699,0-19.379-8.679-19.379-19.381
		c0-10.71,4.355-10.399,4.355-10.399c3.579,0,8.574,0.933,13.637,2.386c0.309,0.543,0.514,1.174,0.514,1.844
		c0,2.018-1.637,3.658-3.658,3.658c-2.018,0-3.651-1.641-3.651-3.658c0-0.24,0.028-0.477,0.071-0.699
		c-1.574,1.854-2.52,4.25-2.52,6.873c0.004,5.863,4.76,10.63,10.631,10.625c5.881-0.002,10.639-4.767,10.639-10.635
		c0-1.369-0.267-2.67-0.734-3.871c-0.019-0.006-0.029-0.014-0.041-0.024c5.295,2.429,9.152,5.153,9.152,7.403
		C197.705,80.15,189.395,89.092,178.689,89.092z M242.545,89.092c-10.709,0-19.014-8.941-19.014-15.879
		c0-2.25,3.857-4.975,9.152-7.403c-0.01,0.011-0.023,0.019-0.039,0.024c-0.467,1.201-0.736,2.502-0.736,3.871
		c-0.002,5.868,4.756,10.633,10.637,10.635c5.869,0.005,10.629-4.762,10.631-10.625c0-2.623-0.949-5.019-2.518-6.873
		c0.041,0.223,0.068,0.459,0.068,0.699c0,2.018-1.633,3.658-3.654,3.658c-2.018,0-3.652-1.641-3.652-3.658
		c0-0.67,0.205-1.301,0.516-1.844c5.057-1.453,10.053-2.386,13.635-2.386c0,0,4.357-0.311,4.357,10.399
		C261.928,80.413,253.246,89.092,242.545,89.092z"/>
</g>
<path fill="#FFFFFF" d="M96.984,90.02c0,2.354-0.649,4.184-1.946,5.479c-1.298,1.307-3.128,1.951-5.471,1.951H68.855
	c-0.623,0-0.926-0.309-0.926-0.93V54.424c0-0.625,0.311-0.932,0.926-0.932h20.093c2.354,0,4.18,0.648,5.479,1.949
	c1.302,1.303,1.952,3.125,1.952,5.482v7.424c0,0.787-0.177,1.506-0.527,2.17c-0.349,0.656-0.813,1.238-1.394,1.734
	c-0.576,0.494-1.234,0.883-1.977,1.172c-0.747,0.293-1.508,0.432-2.29,0.432v0.129c1.89,0,3.501,0.559,4.813,1.666
	c1.32,1.125,1.979,2.602,1.979,4.457V90.02z M85.245,62.764c0-0.248-0.094-0.463-0.275-0.648c-0.184-0.184-0.403-0.281-0.652-0.281
	h-4.938v8.688h4.328c1.025,0,1.538-0.518,1.538-1.553V62.764z M85.536,80.23c0-0.498-0.133-0.893-0.4-1.178
	c-0.265-0.293-0.648-0.416-1.137-0.377l-4.62,0.189v10.24h5.231c0.245,0,0.463-0.092,0.646-0.277
	c0.189-0.189,0.279-0.406,0.279-0.652V80.23z"/>
<path fill="#FFFFFF" d="M130.765,90.254c0,2.355-0.654,4.176-1.949,5.477c-1.304,1.301-3.124,1.947-5.474,1.947h-14.849
	c-2.347,0-4.175-0.646-5.477-1.947c-1.297-1.301-1.938-3.121-1.938-5.477V60.686c0-2.35,0.642-4.182,1.938-5.477
	c1.302-1.305,3.13-1.943,5.477-1.943h14.849c2.35,0,4.17,0.639,5.474,1.943c1.295,1.295,1.949,3.127,1.949,5.477V90.254z
	 M119.309,62.818c0-0.246-0.089-0.463-0.277-0.648c-0.182-0.188-0.398-0.273-0.647-0.273h-4.935c-0.251,0-0.462,0.086-0.647,0.273
	c-0.187,0.186-0.278,0.402-0.278,0.648v25.307c0,0.244,0.092,0.459,0.278,0.645c0.186,0.189,0.396,0.281,0.647,0.281h4.935
	c0.249,0,0.466-0.092,0.647-0.281c0.188-0.186,0.277-0.4,0.277-0.645V62.818z"/>
<path fill="#FFFFFF" d="M29.058,90.021c0,2.359-0.65,4.184-1.949,5.482c-1.297,1.305-3.121,1.951-5.469,1.951H0.925
	C0.313,97.455,0,97.143,0,96.525V54.424c0-0.619,0.313-0.926,0.925-0.926h20.1c2.352,0,4.178,0.648,5.479,1.949
	c1.298,1.297,1.946,3.127,1.946,5.479v7.432c0,0.779-0.176,1.506-0.521,2.164c-0.358,0.662-0.82,1.238-1.395,1.734
	c-0.58,0.496-1.238,0.885-1.982,1.176c-0.744,0.289-1.506,0.43-2.289,0.43v0.127c1.895,0,3.499,0.555,4.814,1.67
	c1.319,1.115,1.98,2.6,1.98,4.459V90.021z M17.318,62.77c0-0.248-0.09-0.461-0.274-0.65c-0.188-0.186-0.401-0.283-0.654-0.283
	h-4.941v8.689h4.325c1.033,0,1.545-0.514,1.545-1.551V62.77z M17.599,80.234c0-0.494-0.13-0.893-0.393-1.18
	c-0.27-0.287-0.645-0.412-1.144-0.369l-4.614,0.184v10.24h5.238c0.245,0,0.455-0.09,0.643-0.277c0.182-0.184,0.27-0.404,0.27-0.654
	V80.234z"/>
<path fill="#FFFFFF" d="M63.12,90.258c0,2.352-0.643,4.178-1.947,5.477c-1.305,1.303-3.125,1.945-5.473,1.945H40.856
	c-2.355,0-4.178-0.643-5.472-1.945c-1.302-1.299-1.953-3.125-1.953-5.477V54.424c0-0.619,0.306-0.926,0.935-0.926h9.59
	c0.618,0,0.921,0.307,0.921,0.926V87.84c0,0.246,0.099,0.465,0.289,0.65c0.185,0.186,0.396,0.273,0.644,0.273h4.94
	c0.237,0,0.46-0.088,0.649-0.273c0.18-0.186,0.274-0.404,0.274-0.65V54.424c0-0.619,0.308-0.926,0.929-0.926h9.588
	c0.624,0,0.93,0.307,0.93,0.926V90.258z"/>
<path fill="#FFFFFF" d="M331.286,80.107c0-1.855,0.659-3.332,1.979-4.457c1.313-1.107,2.924-1.666,4.813-1.666v-0.129
	c-0.782,0-1.543-0.139-2.29-0.432c-0.742-0.289-1.4-0.678-1.977-1.172c-0.58-0.496-1.045-1.078-1.394-1.734
	c-0.351-0.664-0.527-1.383-0.527-2.17v-7.424c0-2.357,0.65-4.18,1.952-5.482c1.299-1.301,3.125-1.949,5.479-1.949h20.093
	c0.615,0,0.926,0.307,0.926,0.932V96.52c0,0.621-0.303,0.93-0.926,0.93h-20.712c-2.343,0-4.173-0.645-5.471-1.951
	c-1.297-1.295-1.946-3.125-1.946-5.479V80.107z M343.025,68.969c0,1.035,0.513,1.553,1.538,1.553h4.328v-8.688h-4.938
	c-0.249,0-0.469,0.098-0.652,0.281c-0.182,0.186-0.275,0.4-0.275,0.648V68.969z M342.734,88.176c0,0.246,0.09,0.463,0.279,0.652
	c0.184,0.186,0.401,0.277,0.646,0.277h5.231v-10.24l-4.62-0.189c-0.488-0.039-0.872,0.084-1.137,0.377
	c-0.268,0.285-0.4,0.68-0.4,1.178V88.176z"/>
<path fill="#FFFFFF" d="M297.506,60.686c0-2.35,0.654-4.182,1.949-5.477c1.304-1.305,3.124-1.943,5.474-1.943h14.849
	c2.347,0,4.175,0.639,5.477,1.943c1.297,1.295,1.938,3.127,1.938,5.477v29.568c0,2.355-0.642,4.176-1.938,5.477
	c-1.302,1.301-3.13,1.947-5.477,1.947h-14.849c-2.35,0-4.17-0.646-5.474-1.947c-1.295-1.301-1.949-3.121-1.949-5.477V60.686z
	 M308.962,88.125c0,0.244,0.089,0.459,0.277,0.645c0.182,0.189,0.398,0.281,0.647,0.281h4.935c0.251,0,0.462-0.092,0.647-0.281
	c0.187-0.186,0.278-0.4,0.278-0.645V62.818c0-0.246-0.092-0.463-0.278-0.648c-0.186-0.188-0.396-0.273-0.647-0.273h-4.935
	c-0.249,0-0.466,0.086-0.647,0.273c-0.188,0.186-0.277,0.402-0.277,0.648V88.125z"/>
<path fill="#FFFFFF" d="M399.213,80.117c0-1.859,0.661-3.344,1.98-4.459c1.315-1.115,2.92-1.67,4.814-1.67v-0.127
	c-0.783,0-1.545-0.141-2.289-0.43c-0.744-0.291-1.402-0.68-1.982-1.176c-0.574-0.496-1.036-1.072-1.395-1.734
	c-0.346-0.658-0.521-1.385-0.521-2.164v-7.432c0-2.352,0.648-4.182,1.946-5.479c1.302-1.301,3.128-1.949,5.479-1.949h20.1
	c0.611,0,0.925,0.307,0.925,0.926v42.102c0,0.617-0.313,0.93-0.925,0.93h-20.715c-2.348,0-4.172-0.646-5.469-1.951
	c-1.299-1.299-1.949-3.123-1.949-5.482V80.117z M410.952,68.975c0,1.037,0.512,1.551,1.545,1.551h4.325v-8.689h-4.941
	c-0.253,0-0.467,0.098-0.654,0.283c-0.185,0.189-0.274,0.402-0.274,0.65V68.975z M410.672,88.178c0,0.25,0.088,0.471,0.27,0.654
	c0.188,0.188,0.397,0.277,0.643,0.277h5.238v-10.24l-4.614-0.184c-0.499-0.043-0.874,0.082-1.144,0.369
	c-0.263,0.287-0.393,0.686-0.393,1.18V88.178z"/>
<path fill="#FFFFFF" d="M365.15,54.424c0-0.619,0.306-0.926,0.93-0.926h9.588c0.621,0,0.929,0.307,0.929,0.926V87.84
	c0,0.246,0.095,0.465,0.274,0.65c0.189,0.186,0.412,0.273,0.649,0.273h4.94c0.247,0,0.459-0.088,0.644-0.273
	c0.19-0.186,0.289-0.404,0.289-0.65V54.424c0-0.619,0.303-0.926,0.921-0.926h9.59c0.629,0,0.935,0.307,0.935,0.926v35.834
	c0,2.352-0.651,4.178-1.953,5.477c-1.294,1.303-3.116,1.945-5.472,1.945H372.57c-2.348,0-4.168-0.643-5.473-1.945
	c-1.305-1.299-1.947-3.125-1.947-5.477V54.424z"/>
</svg>
