<?xml version="1.0" encoding="utf-8"?>
<!-- Generator: Adobe Illustrator 16.0.0, SVG Export Plug-In . SVG Version: 6.00 Build 0)  -->
<!DOCTYPE svg PUBLIC "-//W3C//DTD SVG 1.1//EN" "http://www.w3.org/Graphics/SVG/1.1/DTD/svg11.dtd">
<svg version="1.1" id="Layer_1" xmlns="http://www.w3.org/2000/svg" xmlns:xlink="http://www.w3.org/1999/xlink" x="0px" y="0px"
	 width="147.333px" height="147px" viewBox="0 0 147.333 147" enable-background="new 0 0 147.333 147" xml:space="preserve">
<path fill="none" stroke="#7C7C7C" stroke-width="10" stroke-linecap="round" stroke-linejoin="round" stroke-miterlimit="10" d="
	M55.977,99.247c0,23.646,19.17,42.816,42.816,42.816c23.647,0,42.816-19.17,42.816-42.816c0-23.647-19.169-42.816-42.816-42.816"/>
<path fill="none" stroke="#7C7C7C" stroke-width="10" stroke-linecap="round" stroke-linejoin="round" stroke-miterlimit="10" d="
	M77.276,99.247c0,11.883,9.634,21.517,21.517,21.517c11.884,0,21.518-9.634,21.518-21.517c0-11.884-9.634-21.518-21.518-21.518"/>
<circle fill="#7C7C7C" cx="98.793" cy="99.247" r="7.211"/>
<path fill="none" stroke="#7C7C7C" stroke-width="10" stroke-linecap="round" stroke-linejoin="round" stroke-miterlimit="10" d="
	M84.844,28.837l-0.049,55.784l-55.784-0.049l13.604-13.58c-0.338-0.243-0.666-0.51-0.97-0.814L8.608,37.084
	c-3.026-3.031-3.021-7.94,0.01-10.966L26.426,8.342c3.031-3.026,7.94-3.021,10.966,0.009l33.036,33.095
	c0.304,0.304,0.569,0.632,0.813,0.972L84.844,28.837z"/>
</svg>
