<?xml version="1.0" encoding="utf-8"?>
<!-- Generator: Adobe Illustrator 16.0.0, SVG Export Plug-In . SVG Version: 6.00 Build 0)  -->
<!DOCTYPE svg PUBLIC "-//W3C//DTD SVG 1.1//EN" "http://www.w3.org/Graphics/SVG/1.1/DTD/svg11.dtd">
<svg version="1.1" id="Layer_1" xmlns="http://www.w3.org/2000/svg" xmlns:xlink="http://www.w3.org/1999/xlink" x="0px" y="0px"
	 width="496.5px" height="497.5px" viewBox="0 0 496.5 497.5" enable-background="new 0 0 496.5 497.5" xml:space="preserve">
<path opacity="0.6" fill="none" stroke="#000000" stroke-width="38" stroke-linecap="round" d="M284,282
	c59.194-60.3,58.3-157.17-2-216.365c-60.3-59.195-157.17-58.3-216.365,2c-59.196,60.3-58.301,157.17,2,216.365
	c59.513,58.423,154.852,58.423,214.365,0l170,170 M361,337l110,110l-26,26L335,363"/>
<path fill="none" stroke="#FFFFFF" stroke-width="36" stroke-linecap="round" d="M280,278c59.194-60.3,58.3-157.17-2-216.365
	c-60.3-59.195-157.17-58.3-216.365,2c-59.196,60.3-58.301,157.17,2,216.365c59.513,58.423,154.852,58.423,214.365,0l170,170
	 M357,333l110,110l-26,26L331,359"/>
</svg>
